<?xml version="1.0" encoding="UTF-8"?>
<svg id="Capa_2" data-name="Capa 2" xmlns="http://www.w3.org/2000/svg" viewBox="0 0 97.33 112.26">
  <defs>
    <style>
      .cls-1 {
        fill: #fff;
      }

      .cls-2 {
        fill: #c65038;
      }
    </style>
  </defs>
  <g id="Capa_1-2" data-name="Capa 1">
    <g>
      <path class="cls-2" d="M0,112.26L.03,47.95l.17-2.68c.3-3.76.94-7.43,2.09-11.03.71-2.25,1.55-4.4,2.58-6.52,2.1-4.33,5.08-8.69,8.38-12.18l2.38-2.38c2.24-2.07,4.66-3.96,7.24-5.6C33.6.69,46.56-1.63,59.01,1.14c8.62,1.91,16.45,6.17,22.88,12.19,4.4,4.12,8.24,9.37,10.8,14.84s3.92,10.81,4.4,16.57c.17,1.71.25,3.39.23,5.13v62.4s-97.32,0-97.32,0Z"/>
      <g>
        <path class="cls-1" d="M35.13,97.29c-2.17,2.54-3.62,5.73-4.05,9.05-.04.27-.27.46-.54.46h-5.01c-.3,0-.51-.24-.47-.54l.28-2.04-10.95-2.24-6.28-1.3c-.2-.04-.37-.21-.37-.44v-10.19c0-.23.16-.34.3-.4.17-.08.31-.05.53.03l18.54,8.81c.65-1.29,1.34-2.52,2.16-3.7l-10.38-8.59-10.9-9.05c-.17-.14-.26-.27-.26-.5l.02-15.57c0-.23.22-.4.36-.43.19-.04.37.06.52.24l10.69,12.82,4.56,5.46,7.05,8.49,2.27,2.69c1-.85,2.02-1.59,3.13-2.33l-2.23-4.38-9.85-19.47-8.98-17.63-2.12-4.16-2.11-4.15c-.11-.22-.21-.42-.1-.67l1.09-2.61c2.12-4.55,4.93-8.72,8.42-12.31l.73-.75c.13-.14.6-.18.69.11l3.78,12.09,3.34,10.69,1.88,5.98,4.4,14.04,2.92,9.35,3.6,11.42c1.27-.39,2.54-.65,3.87-.82l-.84-9.72-.79-8.97-1.66-19.08-.57-6.63-1.32-15.28-.65-7.18-.14-1.86-.34-3.94c-.03-.35.14-.49.45-.56,5.83-1.38,11.86-1.4,17.69.02.25.06.41.22.39.48l-.82,9.52-1.19,13.51-.67,7.84-.75,8.35-1.99,22.86-.65,7.58-.27,2.91c0,.05.01.12.03.14.03.04.1.05.18.06,1.2.12,2.34.4,3.49.72.06.02.11.02.15,0,.04-.02.07-.08.09-.16l1.42-4.65,4.53-14.51,6.76-21.63,1.66-5.34,1.34-4.34,2.49-7.92,1.52-4.74c.06-.19.16-.36.29-.42.2-.08.45-.06.59.09l1.15,1.16c1.44,1.45,2.66,3.04,3.85,4.72,2.13,3.01,3.91,6.21,5.24,9.64.12.3.11.49-.04.77l-6.03,11.49-3.77,7.19-16.12,30.85c1.34.8,2.55,1.67,3.71,2.67l4.76-5.73,8.22-9.84,11.66-13.96c.16-.19.36-.25.56-.18.14.05.31.25.31.49v15.56c0,.28-.24.42-.43.58l-21.18,17.48c.88,1.2,1.52,2.4,2.13,3.62.05.1.15.08.25,0l13.77-6.5,4.59-2.2c.2-.09.4-.12.56-.04.19.1.31.26.31.52v9.94c0,.33-.16.54-.47.6l-4.2.86-8.09,1.6-4.63.97c-.1.02-.2.04-.22.1-.03.08,0,.19,0,.29l.23,1.63c.02.17,0,.34-.1.45-.11.12-.27.17-.46.17h-5.06c-.2-.01-.36-.26-.38-.43-.14-1.21-.42-2.31-.83-3.46-1.32-3.64-3.62-6.62-6.8-8.83-7.51-5.2-17.57-3.73-23.47,3.2Z"/>
        <path class="cls-1" d="M43.49,90.77c-1.33.42-2.53.86-3.72,1.53-1.06.6-2.04,1.24-2.99,2.02-3.47,2.87-5.95,7.08-6.62,11.57h-4.12s.31-1.9.31-1.9c.05-.29-.09-.54-.4-.62l-17.28-3.53v-9.04s13.02,6.18,13.02,6.18l5.35,2.56c.32.15.64.06.79-.28.65-1.5,1.48-2.88,2.44-4.19.18-.24.12-.57-.1-.75l-2.92-2.43-12.42-10.3-6.15-5.09v-14.03s8.22,9.86,8.22,9.86l10.39,12.47,5.55,6.63c.15.18.45.15.61,0,1.14-1.05,2.37-1.95,3.71-2.74.35-.2.31-.55.15-.86l-1.63-3.18-3.1-6.13-3.27-6.49-3.83-7.58-8.65-16.97-2.16-4.25-1.95-3.85-.84-1.63c.41-1.14.92-2.19,1.45-3.29.86-1.78,1.83-3.42,2.92-5.06,1.46-2.21,3.11-4.22,4.91-6.15.05-.05.09-.07.12-.05.02.02.02.06.04.14l5.98,19.11,2.04,6.53,2.26,7.24,4.27,13.59,5.16,16.43c.12.38.5.41.79.3,1.39-.48,2.8-.74,4.26-.94.21-.03.36-.08.47-.22.13-.17.1-.32.07-.58l-1.14-13.04-2.73-31.44-1.32-15.28-.63-6.93-.5-5.79,4.29-.71c4.12-.47,8.23-.22,12.32.71l-1,11.46-1.23,14.11-.75,8.64-1.66,19.11-1.25,14.43-.44,4.88c-.03.37.16.61.53.66,1.48.17,2.92.44,4.33.94.31.11.66.06.78-.31l1.26-4.09,5.67-18.24,1.82-5.82,1.8-5.73,2.77-8.89,6.35-20.26c.03-.09.04-.1.09-.11.03,0,.07.07.1.1,1.97,2.01,3.69,4.19,5.23,6.55,1.05,1.6,2.02,3.18,2.79,4.92l1.34,3.05-10.47,19.93-5.76,10.92-8.27,15.91-1.6,3.16c-.13.26.02.53.25.68l2.28,1.48,1.92,1.57c.16.14.32.16.56.14l6.31-7.56.07-.08.06-.07.06-.07.81-.98,5.87-7.02.07-.09,10.91-13.06c.01-.13.16-.11.12.03v13.85s-21.65,17.88-21.65,17.88c-.21.17-.16.5-.03.67,1.08,1.35,1.86,2.84,2.59,4.38.15.31.55.19.77.08l6.34-3.02,8.14-3.84,3.62-1.73c.06-.03.13-.08.17-.07.05.02.07.13.04.2v4.42s0,4.42,0,4.42l-6.38,1.29-6.27,1.25-4.63.96c-.25.05-.47.26-.43.52l.23,1.38.02.11.02.11.02.12.02.18s.02.08,0,.09c-.03.01-.11.02-.16.02h-3.94c-.6-3.85-2.42-7.38-5.13-10.19-.69-.71-1.37-1.29-2.15-1.88-1.81-1.38-3.8-2.37-5.99-3.04-3.28-1-7.06-1.06-10.38-.01Z"/>
      </g>
    </g>
  </g>
</svg>